<?xml version="1.0" encoding="utf-8"?>
<!-- Generator: Adobe Illustrator 21.0.0, SVG Export Plug-In . SVG Version: 6.00 Build 0)  -->
<svg version="1.1" id="Calque_1" xmlns="http://www.w3.org/2000/svg" xmlns:xlink="http://www.w3.org/1999/xlink" x="0px" y="0px"
	 viewBox="0 0 512 512" style="enable-background:new 0 0 512 512;" xml:space="preserve">
<style type="text/css">
	.st0{display:none;}
	.st1{display:inline;opacity:0.38;fill:#B9B9FC;enable-background:new    ;}
	.st2{fill:#464650;}
	.st3{fill:#EC008C;}
</style>
<g id="Calque_2" class="st0">
	<rect class="st1" width="512" height="512"/>
</g>
<g>
	<path class="st2" d="M62.5,286.1H12c-6.6,0-12,5.4-12,12s5.4,12,12,12h50.5c6.6,0,12-5.4,12-12S69.1,286.1,62.5,286.1z"/>
	<path class="st2" d="M62.5,361.9H45.6c-6.6,0-12,5.4-12,12s5.4,12,12,12h16.8c6.6,0,12-5.4,12-12C74.4,367.3,69.1,361.9,62.5,361.9
		z"/>
	<path class="st2" d="M512,373.8v-21.1c0-17.4-6.8-33.7-19-45.9c-0.1-0.1-0.3-0.2-0.4-0.4L458.3,275c-0.1,0-0.1-0.1-0.2-0.1
		c-10.1-8.9-23.8-14.1-37.6-14.1h-34.7v-28.4c0-26.1-21.2-47.3-47.3-47.3H210.8c-3.6,8.6-8.2,16.6-13.7,23.9v0.1h141.4
		c12.9,0,23.4,10.5,23.4,23.4v129.4H133.4V250.1c-7.7,1.7-15.6,2.6-23.8,2.6c-0.1,0-0.1,0-0.2,0v121.2v41.2
		c0,16.4,13.3,29.7,29.7,29.7h8.7c4.8,19.4,22.4,33.7,43.2,33.7s38.3-14.4,43.2-33.7h157.6c4.8,19.4,22.4,33.7,43.2,33.7
		c20.8,0,38.3-14.4,43.2-33.7h4.2c16.4,0,29.7-13.3,29.7-29.7L512,373.8z M191,454.5c-11.3,0-20.5-9.2-20.5-20.5s9.2-20.6,20.5-20.6
		c11.3,0,20.5,9.2,20.5,20.6C211.5,445.3,202.3,454.5,191,454.5z M434.9,454.5c-11.3,0-20.5-9.2-20.5-20.5s9.2-20.6,20.5-20.6
		s20.5,9.2,20.5,20.6C455.5,445.3,446.2,454.5,434.9,454.5z M488,415.1c0,3.1-2.6,5.7-5.7,5.7h-4.9c-5.6-18.1-22.6-31.4-42.5-31.4
		c-20,0-36.9,13.2-42.5,31.4H233.5c-5.6-18.1-22.6-31.4-42.5-31.4s-36.9,13.2-42.5,31.4H139c-3.1,0-5.7-2.6-5.7-5.7v-29.3H488V415.1
		z M488,361.8H385.8v-77h34.7c8,0,15.9,2.9,21.7,8l34,31.1c7.6,7.7,11.8,18,11.8,28.8V361.8z"/>
</g>
<g>
	<path class="st3" d="M109.6,33.5C49.2,33.5,0.1,82.7,0.1,143.1s49.2,109.6,109.6,109.6s109.6-49.2,109.6-109.6S170,33.5,109.6,33.5
		z M109.6,228.8c-47.2,0-85.6-38.4-85.6-85.6s38.4-85.6,85.6-85.6s85.6,38.4,85.6,85.6C195.2,190.3,156.8,228.8,109.6,228.8z"/>
	<path class="st3" d="M155,134.6h-38.5V96.1c0-6.6-5.4-12-12-12s-12,5.4-12,12v62.5H155c6.6,0,12-5.4,12-12
		C167,139.9,161.6,134.6,155,134.6z"/>
</g>
</svg>
