<?xml version="1.0" encoding="utf-8"?>
<!-- Generator: Adobe Illustrator 21.0.0, SVG Export Plug-In . SVG Version: 6.00 Build 0)  -->
<svg version="1.1" id="Calque_1" xmlns="http://www.w3.org/2000/svg" xmlns:xlink="http://www.w3.org/1999/xlink" x="0px" y="0px"
	 viewBox="0 0 200 200" style="enable-background:new 0 0 200 200;" xml:space="preserve">
<style type="text/css">
	.st0{fill:#464650;}
	.st1{display:none;fill:#FFFFFF;}
	.st2{fill:#EC008C;}
</style>
<path class="st0" d="M168.8,74.8l-17.6-18.2c-3,1.1-6.2,2.6-9.2,4.4l9,9.3h-19.7c-2.3,3-4.1,6.2-5.4,9.8h30.3c2,0,3.8,0.6,5.4,1.6
	l-46.1,46.1l-13.9-13.9c-3.7-3.7-8.7-5.8-14-5.8c-5.3,0-10.3,2.1-14,5.8l-13.3,13.2L14.8,81.6c1.5-1,3.4-1.5,5.3-1.5h87.5
	c-0.3-3.3-0.1-6.6,0.3-9.8H25.4l55.8-57.6c1.9-1.9,4.4-2.9,7.1-2.9s5.2,1,7.1,2.9L123,41.3c2.2-2.3,4.5-4.4,7.1-6.6L102.3,5.9
	l-0.1-0.1C98.5,2.1,93.6,0,88.3,0S78,2.1,74.3,5.8L7,75.4C2.9,79,0.4,84.3,0.4,90.1v90.1c0,10.9,8.9,19.8,19.8,19.8h136.1
	c10.9,0,19.8-8.9,19.8-19.8V90.1C176.1,83.9,173.2,78.4,168.8,74.8z M10.1,90.6L53.5,134l-43.4,43.3V90.6z M156.3,190.3H20.2
	c-2.6,0-4.9-1-6.7-2.6l67-67c1.9-1.9,4.4-3,7.1-3c2.7,0,5.2,1,7.1,3l67.6,67.6C160.6,189.6,158.5,190.3,156.3,190.3z M166.4,178.5
	l-44-43.9l44-44V178.5z"/>
<g>
	<g>
		<g>
			<rect x="9.7" y="103" class="st1" width="108" height="42"/>
		</g>
	</g>
	<path class="st2" d="M199.4,20.1c-0.4-0.8-1-1.5-2-1.9l-49.9-18c-1.2-0.5-2.6-0.1-3.6,0.8c-0.9,0.9-1.1,2.4-0.7,3.6l7.2,17
		c-3.7,1.8-8.8,4.5-14.2,8.4c-13.6,9.5-23,20.9-26.7,32.9c-4.7,14.8-1.6,30.5,9.2,46.9c0.7,0.9,1.7,1.5,2.7,1.5
		c0.4,0,0.8-0.1,1.2-0.3c1.5-0.6,2.4-2.2,2-3.7c-2.9-15.3-0.7-27.9,6.7-37.2c9.2-11.7,24.4-15.6,32.2-16.9l7.2,17.3
		c0.5,1.2,1.7,2,3,2.1c0,0,0,0,0.1,0c1.3,0,2.4-0.8,3-1.9l22.4-48C199.7,21.9,199.8,20.9,199.4,20.1z"/>
</g>
</svg>
