<?xml version="1.0" encoding="utf-8"?>
<!-- Generator: Adobe Illustrator 21.0.0, SVG Export Plug-In . SVG Version: 6.00 Build 0)  -->
<svg version="1.1" id="Calque_1" xmlns="http://www.w3.org/2000/svg" xmlns:xlink="http://www.w3.org/1999/xlink" x="0px" y="0px"
	 viewBox="0 0 200 200" style="enable-background:new 0 0 200 200;" xml:space="preserve">
<style type="text/css">
	.st0{fill:#464650;}
	.st1{fill:#EC008C;}
</style>
<path class="st0" d="M149.3,8.5v38.1c0,4-1.2,7.2-3.6,9.4c-2.1,1.9-4.9,3-7.9,3c-5.7,0-11.5-3.8-11.5-12.4v-2.2V23.8
	C126.3,8.2,115.6,0,105,0S83.8,8.2,83.8,23.8v34c-24,2.5-42.8,23-42.8,47.8V152c0,26.5,21.4,48,47.7,48s47.7-21.6,47.7-48v-46.3
	c0-24.8-18.8-45.3-42.8-47.8v-34c0-9.7,5.8-14,11.5-14c3,0,5.7,1.2,7.8,3.3c2.4,2.5,3.7,6.2,3.7,10.8v22.8
	c0,14.6,10.7,22.3,21.3,22.3c5.5,0,10.7-2,14.6-5.7c3-2.9,6.6-8.1,6.6-16.6V8.5H149.3z M125.8,97.8l-28.5,16.1v0.1v11.1l0,0
	l29.4-16.6V152h-0.1c0,21.1-17,38.2-37.9,38.2s-38-17.2-38-38.2v-43.4l29.4,16.6c0,0,0,0,0-0.1V114v-0.1L51.5,97.8
	c3.3-15.8,16.3-28,32.3-30.1V107c1.4-1,3.1-1.6,4.9-1.6s3.4,0.6,4.8,1.5V67.7C109.6,69.8,122.5,82,125.8,97.8z"/>
<g>
	<path class="st1" d="M88.7,133.7L88.7,133.7c-4.7,0-8.6-3.9-8.6-8.6V114c0-4.7,3.9-8.6,8.6-8.6l0,0c4.7,0,8.6,3.9,8.6,8.6v11.1
		C97.2,129.9,93.4,133.7,88.7,133.7z"/>
</g>
</svg>
